<svg xmlns="http://www.w3.org/2000/svg" xmlns:xlink="http://www.w3.org/1999/xlink" width="155" height="28">
	<defs>
		<clipPath id="clip_0">
			<rect x="-150" y="-249" width="2380" height="1029" clip-rule="evenodd"></rect>
		</clipPath>
	</defs>
	<g clip-path="url(#clip_0)">
		<path fill="rgb(255,255,255)" stroke="none" d="M0 26.7826L0 0L10.2775 0L10.2775 18.5884L24.2188 18.5884L24.2188 26.7826L0 26.7826ZM25.4297 14.0253C25.4297 5.09103 32.8126 0 41.1719 0C49.5325 0 56.9141 5.09103 56.9141 14.0253C56.9141 22.9581 49.4806 28 41.1719 28C32.8632 28 25.4297 22.9581 25.4297 14.0253ZM146.007 3.30603L146.007 0.617107L155 0.617107L155 27.1985L146.007 27.1985L146.007 24.4804L145.878 24.651C143.825 27.4189 140.597 28 138.25 28C130.541 28 124.727 21.9704 124.727 13.9743C124.727 9.76831 126.048 6.1461 128.447 3.77475C130.91 1.34099 134.356 0 138.149 0C140.925 0 144.078 1.18706 145.883 3.17013L146.007 3.30603ZM69.6808 4.1215C71.4551 1.4129 74.4876 0.0455988 77.3173 0.00180125C84.3242 -0.103586 89.6094 4.42261 89.6094 11.7204L89.6094 26.7826L80.4836 26.7826L80.4755 14.3975C80.4755 10.4407 78.8025 8.47114 75.6011 8.18783C73.5997 8.01127 69.6618 9.1678 69.6808 13.8979L69.6808 26.7826L60.5469 26.7826L60.5469 0.729935L69.6808 0.729935L69.6808 4.1215ZM123.516 1.21739L123.428 1.33026C123.006 1.8704 113.831 13.8515 110.752 17.912C110.752 17.912 109.741 19.2449 109.716 19.2798L122.545 19.2798L122.545 26.7826L93.2422 26.7826L93.3299 26.6724C93.8298 26.0302 106.825 9.1757 107.376 8.45686C107.376 8.45686 107.41 8.42327 107.435 8.39774L94.6946 8.39774L94.6946 1.21739L123.516 1.21739ZM35.1172 14C35.1172 17.7489 38.0467 20.6957 41.7773 20.6957C45.5094 20.6957 48.4375 17.7489 48.4375 14C48.4375 10.2497 45.5094 7.30435 41.7773 7.30435C38.0467 7.30435 35.1172 10.2497 35.1172 14ZM141.182 20.6957C137.45 20.6957 134.414 17.6905 134.414 14C134.414 10.308 137.45 7.30435 141.182 7.30435C144.915 7.30435 147.734 10.308 147.734 14C147.734 17.6905 144.915 20.6957 141.182 20.6957Z" fill-rule="evenodd"></path>
	</g>
</svg>
